<svg width="48" height="48" viewBox="0 0 48 48" fill="none" xmlns="http://www.w3.org/2000/svg">
<path d="M48 0H0V48H48V0Z" fill="#323238"/>
<path d="M34 12H14C12.8954 12 12 12.8954 12 14V34C12 35.1045 12.8954 36 14 36H34C35.1046 36 36 35.1045 36 33.9999V14C36 12.8954 35.1046 12 34 12Z" fill="white"/>
<path d="M19.5865 32.9995C19.5862 32.9995 19.5861 32.9993 19.5861 32.9991V22.7838C19.5861 21.7183 18.7223 20.8545 17.6568 20.8545C16.5912 20.8545 15.7274 21.7183 15.7274 22.7838V30.9995C15.7274 32.1041 16.6229 32.9995 17.7274 32.9995H19.5865ZM17.6574 19.1966C17.6575 19.1966 17.6576 19.1966 17.6577 19.1966C19.0029 19.1965 19.8404 18.264 19.8404 17.0985C19.8152 15.9065 19.0029 14.9999 17.6831 14.9999C16.3625 14.9999 15.5 15.9065 15.5 17.0984C15.5 18.2639 16.3372 19.1965 17.6323 19.1965H17.6571C17.6572 19.1965 17.6573 19.1965 17.6574 19.1966ZM21.7219 32.9996C21.7219 32.9995 21.7219 32.9995 21.7219 32.9995H23.5802C24.6848 32.9995 25.5802 32.1041 25.5802 30.9995V26.2179C25.5802 25.8554 25.6054 25.492 25.7073 25.2331C25.9861 24.5076 26.621 23.7565 27.6872 23.7565C29.083 23.7565 29.6418 24.8702 29.6418 26.503V31.0704C29.6418 32.1358 30.5055 32.9995 31.5709 32.9995C32.6363 32.9995 33.5 32.1358 33.5 31.0704V26.036C33.5 22.3057 31.5967 20.5698 29.0581 20.5698C26.9883 20.5698 26.0729 21.7733 25.5633 22.6019C25.5595 22.608 25.5641 22.6157 25.5713 22.6157C25.5764 22.6157 25.5805 22.6116 25.5805 22.6065V21.7353C25.5805 21.2491 25.1863 20.8549 24.7001 20.8549H23.0302C22.3173 20.8549 21.7357 21.4458 21.7396 22.1587C21.7569 25.3691 21.7218 32.9928 21.7218 32.9999C21.7218 33 21.7218 32.9996 21.7219 32.9996Z" fill="#292826"/>
</svg>
