<svg width="48" height="48" viewBox="0 0 48 48" fill="none" xmlns="http://www.w3.org/2000/svg">
<path d="M48 0H0V48H48V0Z" fill="#323238"/>
<path d="M22.724 35.9999C21.617 35.9999 20.324 35.9939 19.048 35.9209C17.1811 35.9629 15.3729 35.2669 14.016 33.9839C12.7328 32.6275 12.0367 30.8196 12.079 28.9529C12 27.5099 12 26.0509 12 24.6399C12 24.4265 12 24.2132 12 23.9999C12 23.7865 12 23.5732 12 23.3599C12 21.9489 12 20.4899 12.079 19.0479C12.037 17.1809 12.733 15.3728 14.016 14.0159C15.3729 12.7329 17.1811 12.0369 19.048 12.0789C20.328 12.0059 21.617 11.9999 22.724 11.9999H25.277C26.384 11.9999 27.677 12.0059 28.954 12.0789C30.8207 12.0366 32.6286 12.7327 33.985 14.0159C35.268 15.3728 35.964 17.1809 35.922 19.0479C36 20.4899 36 21.9489 36 23.3609C36 23.5742 36 23.7875 36 24.0009C36 24.2142 36 24.4272 36 24.6399C36 26.0509 36 27.5099 35.921 28.9539C35.9633 30.8206 35.2672 32.6285 33.984 33.9849C32.6276 35.2681 30.8197 35.9642 28.953 35.9219C27.672 35.9949 26.383 36.0009 25.276 36.0009L22.724 35.9999Z" fill="white"/>
<path d="M30.0228 17.0528C29.9814 17.2343 29.8464 17.3963 29.6184 17.5389C29.4109 17.6815 29.162 17.8046 28.8717 17.9083C28.5814 17.9991 28.2703 18.0769 27.9384 18.1417C27.6273 18.1935 27.337 18.2194 27.0673 18.2194C26.7354 18.2194 26.3414 18.1935 25.885 18.1417C25.4495 18.0898 25.0243 18.025 24.6095 17.9472C24.2154 17.8694 23.8732 17.7917 23.5828 17.7139C23.3132 17.6361 23.1784 17.5648 23.1784 17.5C23.1784 17.4741 23.2199 17.4546 23.3028 17.4417C23.3858 17.4287 23.4895 17.4157 23.6139 17.4028C23.7591 17.3898 23.9043 17.3833 24.0495 17.3833C24.1947 17.3833 24.3191 17.3833 24.4228 17.3833C24.8376 17.3833 25.2939 17.3963 25.7917 17.4222C26.3102 17.4481 26.7769 17.4546 27.1917 17.4417C27.5237 17.4417 27.8037 17.4352 28.0317 17.4222C28.2598 17.4093 28.4673 17.3898 28.6539 17.3639C28.8614 17.325 29.0584 17.2861 29.245 17.2472C29.4317 17.1954 29.6495 17.1306 29.8984 17.0528C29.9398 17.0269 29.9814 17.0269 30.0228 17.0528ZM30.3339 16.4306C30.3339 16.5602 30.2303 16.6704 30.0228 16.7611C29.8362 16.8519 29.6081 16.9296 29.3384 16.9944C29.0895 17.0463 28.8198 17.0917 28.5295 17.1306C28.2598 17.1565 28.0526 17.1694 27.9073 17.1694C27.1398 17.1694 26.3621 17.1176 25.5739 17.0139C24.7858 16.9102 24.008 16.8583 23.2406 16.8583C22.328 16.8583 21.5087 16.9944 20.7828 17.2667C20.0569 17.5259 19.4865 17.8954 19.0717 18.375C19.0302 18.4139 18.9784 18.4333 18.9162 18.4333C18.8539 18.4333 18.8436 18.4009 18.885 18.3361C19.2169 17.7009 19.7458 17.1954 20.4717 16.8194C21.1976 16.4435 22.1414 16.2556 23.3028 16.2556C24.1739 16.2556 25.0347 16.3204 25.885 16.45C26.7562 16.5667 27.6273 16.625 28.4984 16.625C28.8095 16.625 29.1309 16.6056 29.4628 16.5667C29.8153 16.5148 30.0331 16.4759 30.1162 16.45C30.137 16.437 30.1784 16.4306 30.2406 16.4306C30.3028 16.4176 30.3339 16.4176 30.3339 16.4306ZM21.5295 17.6167C21.5295 17.6426 21.4673 17.688 21.3428 17.7528C21.2184 17.8176 21.0732 17.8889 20.9073 17.9667C20.7414 18.0315 20.5754 18.0963 20.4095 18.1611C20.2643 18.213 20.1606 18.2519 20.0984 18.2778C19.9117 18.3815 19.7458 18.4917 19.6006 18.6083C19.4554 18.712 19.2999 18.8222 19.1339 18.9389C19.1132 18.9389 19.1028 18.9519 19.1028 18.9778C19.1028 18.9907 19.0821 18.9972 19.0406 18.9972C19.0199 18.9972 19.0095 18.9778 19.0095 18.9389C19.0095 18.7833 19.0821 18.6213 19.2273 18.4528C19.3725 18.2843 19.5487 18.1352 19.7562 18.0056C19.9843 17.863 20.2332 17.7528 20.5028 17.675C20.7932 17.5843 21.0732 17.5389 21.3428 17.5389C21.4673 17.5389 21.5295 17.5648 21.5295 17.6167ZM28.5917 21.0583C28.6126 21.6935 28.5086 22.3611 28.2806 23.0611C28.0526 23.7481 27.7309 24.4481 27.3162 25.1611C26.9014 25.8611 26.4243 26.5547 25.885 27.2417C25.3665 27.9286 24.8169 28.5769 24.2362 29.1861C23.6554 29.7953 23.0747 30.3592 22.4939 30.8778C21.9132 31.3964 21.3843 31.837 20.9073 32.2C20.8865 32.213 20.8554 32.2325 20.8139 32.2583C20.7725 32.2972 20.731 32.3297 20.6895 32.3556C20.648 32.3944 20.6065 32.4139 20.565 32.4139C20.5236 32.4269 20.5028 32.4075 20.5028 32.3556C20.4821 32.3167 20.5962 32.1353 20.845 31.8111C21.1147 31.5 21.4362 31.1111 21.8095 30.6444C22.2036 30.1778 22.6287 29.6722 23.085 29.1278C23.5621 28.5833 24.008 28.0648 24.4228 27.5722C24.8376 27.0667 25.2006 26.6259 25.5117 26.25C25.8228 25.8611 26.0199 25.5954 26.1028 25.4528C26.331 25.0639 26.5591 24.6556 26.7873 24.2278C27.0362 23.787 27.2539 23.3333 27.4406 22.8667C27.6481 22.4 27.8037 21.9204 27.9073 21.4278C28.0317 20.9352 28.0837 20.4361 28.0628 19.9306C28.0628 19.8269 28.0731 19.775 28.0939 19.775C28.1353 19.775 28.1664 19.788 28.1873 19.8139C28.2081 19.8269 28.2392 19.8787 28.2806 19.9694C28.3428 20.0991 28.405 20.287 28.4673 20.5333C28.5503 20.7667 28.5917 20.9417 28.5917 21.0583ZM26.0717 19.075C25.9058 20.138 25.6465 21.0972 25.2939 21.9528C24.9414 22.7954 24.5473 23.5602 24.1117 24.2472C23.6969 24.9343 23.251 25.5565 22.7739 26.1139C22.3176 26.6714 21.9028 27.1833 21.5295 27.65C21.1354 28.1425 20.7621 28.6353 20.4095 29.1278C20.0776 29.6203 19.7769 30.1194 19.5073 30.625C19.2584 31.1436 19.051 31.675 18.885 32.2194C18.7399 32.7639 18.6673 33.3408 18.6673 33.95C18.6673 34.0925 18.6465 34.1509 18.605 34.125C18.5636 34.125 18.5325 34.0861 18.5117 34.0083C18.4702 33.9436 18.4287 33.8592 18.3873 33.7556C18.3458 33.6648 18.3147 33.5741 18.2939 33.4833C18.2525 33.3925 18.2317 33.3148 18.2317 33.25C18.128 32.6536 18.1384 32.0898 18.2628 31.5583C18.3665 31.0398 18.5325 30.5408 18.7606 30.0611C19.0095 29.5686 19.2999 29.0953 19.6317 28.6417C19.9636 28.188 20.285 27.7278 20.5962 27.2611C20.928 26.7686 21.3325 26.1981 21.8095 25.55C22.3073 24.9019 22.7947 24.2213 23.2717 23.5083C23.7487 22.7824 24.1843 22.0435 24.5784 21.2917C24.9725 20.5269 25.2421 19.788 25.3873 19.075C24.5991 19.0491 23.7798 18.9972 22.9295 18.9194C22.0998 18.8287 21.3221 18.7185 20.5962 18.5889C20.5547 18.5759 20.5132 18.563 20.4717 18.55C20.4302 18.537 20.4095 18.5176 20.4095 18.4917C20.3887 18.4528 20.4302 18.4204 20.5339 18.3944C20.6584 18.3685 20.731 18.3556 20.7517 18.3556C21.4154 18.2519 22.0376 18.2 22.6184 18.2C23.4065 18.2 24.1843 18.2519 24.9517 18.3556C25.7191 18.4463 26.4969 18.4917 27.285 18.4917C27.5339 18.4917 27.7931 18.4787 28.0628 18.4528C28.3531 18.4139 28.5503 18.3815 28.6539 18.3556C28.737 18.3296 28.7784 18.3361 28.7784 18.375C28.7784 18.4009 28.7681 18.4269 28.7473 18.4528C28.5606 18.5954 28.3326 18.712 28.0628 18.8028C27.8139 18.8806 27.5442 18.9454 27.2539 18.9972C27.3162 19.1657 27.3575 19.3213 27.3784 19.4639C27.3992 19.5935 27.4198 19.7102 27.4406 19.8139C27.565 20.475 27.5028 21.175 27.2539 21.9139C27.0258 22.6398 26.6836 23.3722 26.2273 24.1111C25.771 24.837 25.2317 25.5565 24.6095 26.2694C23.9873 26.9694 23.3547 27.6175 22.7117 28.2139C22.5458 28.3564 22.4214 28.4019 22.3384 28.35C22.2762 28.2981 22.2969 28.188 22.4006 28.0194C22.525 27.812 22.7221 27.5269 22.9917 27.1639C23.2614 26.788 23.5414 26.4056 23.8317 26.0167C24.1221 25.6148 24.3917 25.2389 24.6406 24.8889C24.8895 24.5389 25.0554 24.2861 25.1384 24.1306C25.6776 23.0806 26.0614 22.1343 26.2895 21.2917C26.5384 20.4361 26.6421 19.6907 26.6006 19.0556C26.4969 19.0685 26.4036 19.075 26.3206 19.075C26.2376 19.075 26.1547 19.075 26.0717 19.075ZM20.6273 30.4306C20.6273 30.5083 20.5962 30.6444 20.5339 30.8389C20.4717 31.0464 20.3991 31.2667 20.3162 31.5C20.2332 31.7333 20.1502 31.9536 20.0673 32.1611C19.9843 32.3814 19.9325 32.5436 19.9117 32.6472C19.808 32.9194 19.725 33.1917 19.6628 33.4639C19.6214 33.7361 19.5799 34.0214 19.5384 34.3194C19.5384 34.3453 19.528 34.3842 19.5073 34.4361C19.5073 34.488 19.4762 34.5139 19.4139 34.5139C19.3725 34.5009 19.3414 34.462 19.3206 34.3972C19.2999 34.3325 19.2791 34.287 19.2584 34.2611C19.2169 34.1444 19.165 33.9889 19.1028 33.7944C19.0614 33.613 19.0406 33.4703 19.0406 33.3667C19.0406 33.0425 19.0925 32.6991 19.1962 32.3361C19.2999 31.9861 19.4243 31.662 19.5695 31.3639C19.7147 31.0658 19.8702 30.8194 20.0362 30.625C20.2021 30.4306 20.3576 30.3397 20.5028 30.3528C20.5443 30.3658 20.565 30.3786 20.565 30.3917C20.5858 30.4047 20.6065 30.4175 20.6273 30.4306Z" fill="#292826"/>
</svg>
