<svg width="48" height="48" viewBox="0 0 48 48" fill="none" xmlns="http://www.w3.org/2000/svg">
<path d="M48 0H0V48H48V0Z" fill="#323238"/>
<path d="M22.724 35.9999C21.617 35.9999 20.324 35.9939 19.048 35.9209C17.1811 35.9629 15.3729 35.2669 14.016 33.9839C12.7328 32.6275 12.0367 30.8196 12.079 28.9529C12 27.5099 12 26.0509 12 24.6399C12 24.4265 12 24.2132 12 23.9999C12 23.7865 12 23.5732 12 23.3599C12 21.9489 12 20.4899 12.079 19.0479C12.037 17.1809 12.733 15.3728 14.016 14.0159C15.3729 12.7329 17.1811 12.0369 19.048 12.0789C20.328 12.0059 21.617 11.9999 22.724 11.9999H25.277C26.384 11.9999 27.677 12.0059 28.954 12.0789C30.8207 12.0366 32.6286 12.7327 33.985 14.0159C35.268 15.3728 35.964 17.1809 35.922 19.0479C36 20.4899 36 21.9489 36 23.3609C36 23.5742 36 23.7875 36 24.0009C36 24.2142 36 24.4272 36 24.6399C36 26.0509 36 27.5099 35.921 28.9539C35.9633 30.8206 35.2672 32.6285 33.984 33.9849C32.6276 35.2681 30.8197 35.9642 28.953 35.9219C27.672 35.9949 26.383 36.0009 25.276 36.0009L22.724 35.9999Z" fill="white"/>
<path d="M30.5232 18.3252C28.9251 16.8266 26.7998 16.0008 24.5355 16C19.87 16 16.0728 19.5564 16.071 23.9279C16.0704 25.3252 16.4601 26.6892 17.2008 27.8915L16 32L20.4871 30.8975C21.7235 31.5291 23.1154 31.862 24.5321 31.8625H24.5356C29.2006 31.8625 32.9981 28.3057 33 23.9342C33.0009 21.8157 32.1213 19.8237 30.5232 18.3252ZM24.5356 30.5235H24.5327C23.2703 30.523 22.0321 30.2054 20.9519 29.605L20.695 29.4622L18.0323 30.1164L18.743 27.6847L18.5757 27.4354C17.8715 26.3862 17.4995 25.1735 17.5001 23.9284C17.5016 20.2951 20.6576 17.3391 24.5383 17.3391C26.4174 17.3397 28.1839 18.0261 29.5121 19.2716C30.8404 20.5172 31.5715 22.1729 31.5708 23.9337C31.5693 27.5673 28.4133 30.5235 24.5356 30.5235ZM28.3946 25.5881C28.1831 25.489 27.1433 25.0097 26.9494 24.9436C26.7555 24.8775 26.6146 24.8444 26.4735 25.0428C26.3326 25.2411 25.9272 25.6873 25.8038 25.8195C25.6805 25.9517 25.5571 25.9683 25.3456 25.8691C25.1341 25.7699 24.4526 25.5607 23.6448 24.8858C23.0161 24.3606 22.5916 23.7118 22.4682 23.5135C22.3449 23.3151 22.4551 23.2079 22.561 23.1092C22.6561 23.0204 22.7725 22.8778 22.8782 22.7621C22.984 22.6464 23.0192 22.5638 23.0897 22.4316C23.1602 22.2994 23.125 22.1837 23.0721 22.0845C23.0192 21.9853 22.5962 21.0103 22.42 20.6136C22.2483 20.2273 22.0739 20.2796 21.9441 20.2735C21.8209 20.2678 21.6797 20.2666 21.5388 20.2666C21.3978 20.2666 21.1686 20.3161 20.9748 20.5145C20.7809 20.7128 20.2346 21.1921 20.2346 22.1671C20.2346 23.1422 20.9924 24.0842 21.0981 24.2164C21.2039 24.3486 22.5895 26.3496 24.7111 27.2077C25.2157 27.4118 25.6097 27.5337 25.9168 27.625C26.4235 27.7758 26.8846 27.7545 27.249 27.7035C27.6553 27.6467 28.5003 27.2243 28.6766 26.7615C28.8528 26.2988 28.8528 25.9022 28.7999 25.8195C28.7471 25.7369 28.6061 25.6873 28.3946 25.5881Z" fill="#292826"/>
</svg>
